PathFileType	4	(X/Y/Z)	/Users/itak/Documents/Research/Walk-IL/dataset/trc/00406_00012.trc
DataRate	CameraRate	NumFrames	NumMarkers	Units	OrigDataRate	OrigDataStartFrame	OrigNumFrames
100.000000	100.000000	4	53	mm	100.000000	169	677
Frame#	Time	RPSI			LPSI			L3			STRN			T10			C7			CLAV			RBAK			LBAK			LSHO			LUPA			LAEL			LAOL			LWTS			LWPS			LFRA			LIFD			LHPS			LHTS			RSHO			RUPA			RAEL			RAOL			RWTS			RWPS			RFRA			RIFD			RHTS			RHPS			RBHD			LFHD			RFHD			LBHD			LHIP			RHIP			RASI			LASI			LKNE			LTHI			LANK			LTIP			LTOE			LMT1			LMT5			LHEE			RKNE			RTHI			RANK			RTIP			RTOE			RMT1			RMT5			RHEE			
		X1	Y1	Z1	X2	Y2	Z2	X3	Y3	Z3	X4	Y4	Z4	X5	Y5	Z5	X6	Y6	Z6	X7	Y7	Z7	X8	Y8	Z8	X9	Y9	Z9	X10	Y10	Z10	X11	Y11	Z11	X12	Y12	Z12	X13	Y13	Z13	X14	Y14	Z14	X15	Y15	Z15	X16	Y16	Z16	X17	Y17	Z17	X18	Y18	Z18	X19	Y19	Z19	X20	Y20	Z20	X21	Y21	Z21	X22	Y22	Z22	X23	Y23	Z23	X24	Y24	Z24	X25	Y25	Z25	X26	Y26	Z26	X27	Y27	Z27	X28	Y28	Z28	X29	Y29	Z29	X30	Y30	Z30	X31	Y31	Z31	X32	Y32	Z32	X33	Y33	Z33	X34	Y34	Z34	X35	Y35	Z35	X36	Y36	Z36	X37	Y37	Z37	X38	Y38	Z38	X39	Y39	Z39	X40	Y40	Z40	X41	Y41	Z41	X42	Y42	Z42	X43	Y43	Z43	X44	Y44	Z44	X45	Y45	Z45	X46	Y46	Z46	X47	Y47	Z47	X48	Y48	Z48	X49	Y49	Z49	X50	Y50	Z50	X51	Y51	Z51	X52	Y52	Z52	X53	Y53	Z53	

170	1.69	-525.9558715820312	934.7373657226562	824.1221923828125	-622.578369140625	924.7042846679688	915.9515991210938	-561.5973510742188	1006.316284179688	864.6465454101562	-714.1920776367188	1164.804809570312	683.3729248046875	-545.2559814453125	1110.922729492188	874.4490966796875	-570.6218872070312	1359.746704101562	839.255615234375	-674.1314086914062	1282.266235351562	722.2857055664062	-495.4016723632812	1211.374389648438	829.0593872070312	-635.5023193359375	1326.899047851562	919.5640258789062	-731.9407348632812	1343.994873046875	893.2998046875	-747.629150390625	1233.359008789062	974.8406982421875	-745.3095703125	1040.050170898438	1014.859191894531	-664.155517578125	1023.771545410156	989.66015625	-763.236083984375	804.9388427734375	973.365478515625	-748.1298217773438	811.7857666015625	1055.4677734375	-746.0760498046875	935.7206420898438	1034.788940429688	-719.703125	634.0462646484375	1012.511962890625	-737.1795043945312	726.5856323242188	1058.734008789062	-766.947509765625	709.9149780273438	1004.88623046875	-493.9471740722656	1336.625732421875	691.5657348632812	-438.5728454589844	1272.106323242188	662.327392578125	-410.6599731445312	1010.132019042969	621.5505981445312	-473.1573181152344	992.89013671875	692.8515014648438	-573.09033203125	914.82080078125	466.089111328125	-509.1712646484375	882.263916015625	445.261474609375	-429.4864196777344	967.4083862304688	572.8875732421875	-635.7348022460938	788.5873413085938	364.1145629882812	-607.2145385742188	853.432373046875	383.5805358886719	-545.483154296875	820.3832397460938	392.4270324707031	-527.8532104492188	1542.737548828125	756.1886596679688	-718.9905395507812	1547.462158203125	701.4215698242188	-608.6173706054688	1542.8369140625	648.6734008789062	-664.9384155273438	1548.441284179688	840.61181640625	-764.4849243164062	928.0142822265625	921.4075927734375	-493.2904357910156	906.5721435546875	686.9673461914062	-619.9761962890625	913.1454467773438	616.375	-804.2716674804688	932.2197875976562	805.0680541992188	-924.636962890625	488.6520080566406	738.1312866210938	-881.7188720703125	609.795654296875	798.267578125	-989.7166137695312	38.65189743041992	684.7732543945312	-967.29150390625	256.7317810058594	718.62646484375	-1029	109.4103240966797	483.583984375	-967.5470581054688	81.24179840087891	529.5552368164062	-1058.5458984375	70.88202667236328	583.3742065429688	-922.5223999023438	27.05857467651367	687.4796142578125	-528.669921875	431.2680358886719	792.4849853515625	-547.3388671875	672.5048217773438	674.3555297851562	-430.53515625	70.59712219238281	1001.157470703125	-525.5274047851562	310.9124450683594	847.4005737304688	-615.94677734375	39.26693725585938	986.5900268554688	-561.392822265625	57.18976211547852	1039.700439453125	-500.6932678222656	48.94839477539062	961.2508544921875	-391.0050048828125	89.06554412841797	1082.801391601562	
171	1.7	-536.2321166992188	934.4093017578125	816.047119140625	-633.891845703125	924.9188232421875	906.8130493164062	-572.2787475585938	1005.460754394531	855.6278686523438	-722.1145629882812	1164.663940429688	673.8336791992188	-555.0195922851562	1110.000854492188	866.4744262695312	-579.6204833984375	1359.024291992188	831.61572265625	-682.18798828125	1282.067993164062	713.3469848632812	-504.7138671875	1210.437133789062	821.7901611328125	-645.1066284179688	1325.928955078125	911.2650146484375	-741.287109375	1343.495239257812	884.21240234375	-757.6764526367188	1232.55029296875	965.3768920898438	-755.833984375	1039.181396484375	1004.967834472656	-674.722412109375	1022.605163574219	979.755126953125	-774.1471557617188	804.0577392578125	963.312255859375	-759.3803100585938	811.1131591796875	1045.469604492188	-756.9247436523438	934.9010009765625	1024.78515625	-729.9677734375	633.4348754882812	1003.377563476562	-748.330078125	726.0797729492188	1049.184448242188	-777.5333251953125	708.9345092773438	995.0889892578125	-501.4345397949219	1335.98486328125	684.7244873046875	-446.0256958007812	1271.33203125	656.0634765625	-417.5571899414062	1009.326965332031	616.2825927734375	-480.7091064453125	992.3670654296875	687.0955200195312	-577.6068115234375	908.6844482421875	460.9771118164062	-512.9197998046875	877.1144409179688	441.1913146972656	-435.6761474609375	965.513671875	567.8019409179688	-637.116455078125	779.3909301757812	361.1399230957031	-610.0000610351562	845.1046752929688	379.4671325683594	-547.59521484375	813.5486450195312	389.3275756835938	-535.6627807617188	1542.369018554688	749.2393798828125	-726.2300415039062	1547.191772460938	692.4408569335938	-615.329833984375	1542.45458984375	640.9013671875	-673.568603515625	1548.245971679688	832.1954956054688	-776.092529296875	928.521240234375	910.5621337890625	-501.9806823730469	905.6903686523438	679.4212036132812	-627.8805541992188	912.319580078125	607.117919921875	-814.21142578125	932.5836791992188	793.5982666015625	-932.0863037109375	488.4717407226562	723.8792724609375	-890.7615966796875	609.6498413085938	785.0497436523438	-991.2984619140625	38.58853912353516	680.278564453125	-971.9935302734375	255.8219451904297	707.7025756835938	-1025.420654296875	98.98442077636719	474.7518310546875	-965.0881958007812	74.00484466552734	523.8810424804688	-1057.3115234375	65.3673095703125	575.7083740234375	-924.0676879882812	28.18596458435059	685.2789306640625	-537.2151489257812	430.7201538085938	785.1104736328125	-555.5923461914062	671.5987548828125	666.7325439453125	-431.8228454589844	74.17163848876953	999.2965087890625	-531.5177001953125	310.8973693847656	841.1718139648438	-616.0225219726562	39.33403396606445	986.2086181640625	-562.319580078125	58.93469619750977	1038.348510742188	-501.4349365234375	48.96413803100586	960.173095703125	-393.2900390625	96.15676879882812	1080.436767578125	
172	1.71	-546.4951782226562	934.281982421875	807.7528686523438	-645.2144165039062	925.4974975585938	897.42333984375	-583.0870361328125	1004.890930175781	846.3583374023438	-729.9656982421875	1164.86474609375	664.0661010742188	-564.9203491210938	1109.35205078125	858.3126220703125	-588.7000732421875	1358.59130859375	823.9208374023438	-690.2091674804688	1282.21728515625	704.2232666015625	-514.1469116210938	1209.748779296875	814.4877319335938	-654.8739013671875	1325.284423828125	902.8240356445312	-750.74560546875	1343.313232421875	874.8689575195312	-767.9279174804688	1232.072143554688	955.6351928710938	-766.579345703125	1038.64404296875	994.76025390625	-685.50732421875	1021.748229980469	969.5388793945312	-785.4747314453125	803.5317993164062	952.7966918945312	-771.082275390625	810.7532958984375	1035.027221679688	-768.0511474609375	934.3837890625	1014.4267578125	-741.0691528320312	633.1519165039062	993.8587036132812	-760.0866088867188	725.8908081054688	1039.22607421875	-788.772216796875	708.343994140625	984.82958984375	-508.8489990234375	1335.637573242188	677.9469604492188	-453.43408203125	1270.834106445312	649.9251708984375	-424.5128784179688	1008.804321289062	610.97998046875	-488.3525695800781	992.1414184570312	681.2732543945312	-581.9490966796875	902.2823486328125	456.1171875	-516.4960327148438	871.721923828125	437.4920654296875	-441.8288879394531	963.8056030273438	562.715576171875	-638.0728149414062	769.6836547851562	358.862548828125	-612.45068359375	836.2811279296875	375.8289184570312	-549.3695068359375	806.340087890625	386.7935180664062	-543.4479370117188	1542.338134765625	742.2348022460938	-733.3644409179688	1547.252685546875	683.3253784179688	-621.937255859375	1542.36962890625	633.0374145507812	-682.1922607421875	1548.416137695312	823.6459350585938	-787.7213745117188	929.3978881835938	899.4344482421875	-510.6707153320312	904.9658203125	671.680908203125	-635.7196655273438	911.7888793945312	597.701904296875	-824.1260375976562	933.273681640625	781.884033203125	-939.3377075195312	488.618896484375	709.750244140625	-899.5889892578125	609.698974609375	771.9620361328125	-992.7415161132812	38.92925643920898	676.868896484375	-976.7591552734375	255.3164520263672	697.2307739257812	-1022.073974609375	88.22772979736328	466.9951477050781	-962.8340454101562	66.93009948730469	519.2727661132812	-1056.118408203125	59.94142532348633	569.2548217773438	-925.5625	29.72907829284668	683.9217529296875	-546.1060791015625	430.2142944335938	776.884033203125	-564.0564575195312	670.8702392578125	658.7013549804688	-433.4164733886719	78.12774658203125	996.9069213867188	-537.7789306640625	311.0167846679688	834.0983276367188	-616.0250244140625	39.44432067871094	985.922607421875	-563.4185180664062	60.83290863037109	1036.700317382812	-502.3106689453125	48.82406616210938	958.9467163085938	-396.1097717285156	103.9627304077148	1077.291137695312	
173	1.72	-556.6575317382812	934.3275756835938	799.2607421875	-656.44677734375	926.4337768554688	887.8129272460938	-593.932373046875	1004.636413574219	836.8955078125	-737.6949462890625	1165.416748046875	654.0731811523438	-574.9500732421875	1109.011840820312	849.955078125	-597.8590087890625	1358.465087890625	816.1803588867188	-698.1617431640625	1282.713500976562	694.9276733398438	-523.7015991210938	1209.335327148438	807.1755981445312	-664.8262329101562	1325.005126953125	894.2330932617188	-760.3253784179688	1343.46337890625	865.2512817382812	-778.4119262695312	1231.954956054688	945.5890502929688	-777.5734252929688	1038.471923828125	984.2256469726562	-696.5239868164062	1021.243408203125	959.0477294921875	-797.2003173828125	803.3916625976562	941.8135986328125	-783.2188110351562	810.7283325195312	1024.135131835938	-779.4691772460938	934.1986694335938	1003.702392578125	-753.0573120117188	633.2144775390625	983.8763427734375	-772.42041015625	726.0183715820312	1028.818359375	-800.68603515625	708.19921875	974.0733032226562	-516.178955078125	1335.60595703125	671.2589721679688	-460.7509460449219	1270.647583007812	643.9431762695312	-431.5651550292969	1008.583068847656	605.6487426757812	-496.1339416503906	992.249267578125	675.3876953125	-586.0929565429688	895.6798095703125	451.5390930175781	-519.8715209960938	866.1449584960938	434.2117614746094	-447.9664916992188	962.3219604492188	557.65869140625	-638.5621948242188	759.589599609375	357.3169860839844	-614.5169677734375	827.0657348632812	372.6989135742188	-550.8099365234375	798.8443603515625	384.8858032226562	-551.2035522460938	1542.620361328125	735.1751708984375	-740.375732421875	1547.654418945312	674.0651245117188	-628.412109375	1542.590209960938	625.0863647460938	-690.8104858398438	1548.94873046875	814.952880859375	-799.232666015625	930.6748657226562	888.0532836914062	-519.2510986328125	904.3912963867188	663.762451171875	-643.4155883789062	911.59033203125	588.1718139648438	-833.925048828125	934.3125	769.9666748046875	-946.4713745117188	489.0927734375	695.8511962890625	-908.2479248046875	610.0353393554688	759.0454711914062	-994.091552734375	39.57346343994141	674.3170166015625	-981.66650390625	255.2034149169922	687.2886962890625	-1019.357055664062	77.86947631835938	460.4366760253906	-961.0987548828125	60.4931526184082	515.6132202148438	-1055.234985351562	54.96548080444336	564.0618286132812	-927.0323486328125	31.47886848449707	683.0687866210938	-555.3445434570312	429.7215881347656	767.70849609375	-572.716796875	670.317138671875	650.2437744140625	-435.3894348144531	82.44062805175781	993.9116821289062	-544.3408203125	311.2635498046875	826.07275390625	-615.93994140625	39.58370208740234	985.7683715820312	-564.7313232421875	62.86791229248047	1034.688354492188	-503.3375854492188	48.51832580566406	957.5707397460938	-399.5922241210938	112.4533081054688	1073.248168945312	
